<svg width="16" height="16" viewBox="0 0 16 16" fill="none" xmlns="http://www.w3.org/2000/svg">
<circle cx="8" cy="8" r="8" fill="#CC2A14"/>
<g clip-path="url(#clip0_407:26)">
<path d="M11.9266 10.4268L9.49985 8L11.9266 5.57325C11.9731 5.52618 11.9992 5.46268 11.9992 5.39651C11.9992 5.33035 11.9731 5.26685 11.9266 5.21978L10.7802 4.0734C10.757 4.05013 10.7295 4.03167 10.6992 4.01908C10.6688 4.00648 10.6363 4 10.6035 4C10.5706 4 10.5381 4.00648 10.5078 4.01908C10.4775 4.03167 10.4499 4.05013 10.4268 4.0734L8 6.50015L5.57325 4.0734C5.52637 4.02653 5.4628 4.00021 5.39651 4.00021C5.33023 4.00021 5.26666 4.02653 5.21978 4.0734L4.0734 5.21978C4.05013 5.24296 4.03167 5.2705 4.01908 5.30083C4.00648 5.33116 4 5.36367 4 5.39651C4 5.42935 4.00648 5.46187 4.01908 5.4922C4.03167 5.52252 4.05013 5.55007 4.0734 5.57325L6.50015 8L4.0734 10.4268C4.02653 10.4736 4.00021 10.5372 4.00021 10.6035C4.00021 10.6698 4.02653 10.7333 4.0734 10.7802L5.21978 11.9266C5.24296 11.9499 5.2705 11.9683 5.30083 11.9809C5.33116 11.9935 5.36367 12 5.39651 12C5.42935 12 5.46187 11.9935 5.4922 11.9809C5.52252 11.9683 5.55007 11.9499 5.57325 11.9266L8 9.49985L10.4268 11.9266C10.4736 11.9735 10.5372 11.9998 10.6035 11.9998C10.6698 11.9998 10.7333 11.9735 10.7802 11.9266L11.9266 10.7802C11.9499 10.757 11.9683 10.7295 11.9809 10.6992C11.9935 10.6688 12 10.6363 12 10.6035C12 10.5706 11.9935 10.5381 11.9809 10.5078C11.9683 10.4775 11.9499 10.4499 11.9266 10.4268Z" fill="white"/>
</g>
<defs>
<clipPath id="clip0_407:26">
<rect width="8" height="8" fill="white" transform="translate(4 4)"/>
</clipPath>
</defs>
</svg>
