<?xml version="1.0" standalone="no"?>
<!DOCTYPE svg PUBLIC "-//W3C//DTD SVG 20010904//EN"
 "http://www.w3.org/TR/2001/REC-SVG-20010904/DTD/svg10.dtd">
<svg version="1.0" xmlns="http://www.w3.org/2000/svg"
 width="868.000000pt" height="119.000000pt" viewBox="0 0 868.000000 119.000000"
 preserveAspectRatio="xMidYMid meet">

<g transform="translate(0.000000,119.000000) scale(0.100000,-0.100000)"
fill="#000000" stroke="none">
<path d="M400 645 l0 -315 100 0 100 0 0 160 0 160 65 0 65 0 0 -160 0 -160
100 0 100 0 0 315 0 315 -100 0 -100 0 0 -125 0 -125 -65 0 -65 0 0 125 0 125
-100 0 -100 0 0 -315z"/>
<path d="M3770 645 l0 -315 100 0 100 0 0 155 0 155 25 0 c29 0 63 -30 69 -62
3 -13 7 -66 9 -118 7 -137 0 -130 128 -130 l108 0 -13 33 c-8 17 -17 57 -20
87 -15 125 -25 150 -71 179 l-43 28 32 11 c18 7 45 26 62 43 25 26 29 38 29
89 0 54 -3 62 -35 95 -53 54 -103 65 -307 65 l-173 0 0 -315z m273 244 c31
-14 47 -48 47 -99 0 -51 -32 -89 -82 -97 l-38 -6 0 107 c0 106 0 106 25 106
13 0 35 -5 48 -11z"/>
<path d="M1067 803 l-38 -4 3 -209 3 -210 27 -27 c40 -40 125 -44 191 -9 45
24 47 25 47 6 0 -19 7 -20 95 -20 l95 0 0 240 0 240 -42 0 c-24 0 -67 -3 -95
-6 l-53 -7 0 -159 c0 -125 -3 -167 -16 -193 -16 -34 -38 -50 -55 -39 -5 3 -9
95 -9 205 l0 199 -57 -2 c-32 -1 -75 -3 -96 -5z"/>
<path d="M1633 803 l-43 -4 0 -235 0 -234 95 0 95 0 0 170 c0 105 4 179 11
194 12 25 37 41 48 30 3 -3 7 -93 9 -200 l3 -194 89 0 88 0 4 173 c2 146 6
177 21 201 36 54 42 30 45 -177 l2 -197 96 0 95 0 -3 215 c-3 208 -4 215 -26
237 -19 20 -33 23 -95 23 -60 0 -78 -4 -105 -24 l-33 -23 -25 23 c-22 20 -36
24 -92 24 -54 0 -73 -5 -99 -23 l-33 -23 0 25 c0 25 -2 26 -52 24 -29 -1 -72
-3 -95 -5z"/>
<path d="M2476 795 c-48 -17 -72 -41 -80 -80 -8 -42 5 -56 55 -62 l44 -5 -3
45 c-3 38 0 47 19 61 51 35 109 9 109 -51 0 -40 -21 -57 -121 -98 -91 -38
-125 -69 -135 -125 -9 -45 14 -108 49 -134 40 -30 140 -34 190 -8 35 19 40 19
69 5 23 -12 49 -14 110 -10 43 4 83 9 89 12 15 10 -9 43 -33 47 -23 3 -23 6
-28 181 -5 172 -6 180 -28 198 -13 10 -40 23 -60 29 -53 14 -200 12 -246 -5z
m144 -284 c0 -64 -4 -83 -20 -102 -20 -24 -20 -24 -35 -5 -9 12 -15 41 -15 72
0 42 5 59 26 83 14 17 30 31 35 31 5 0 9 -36 9 -79z"/>
<path d="M2958 803 l-48 -4 0 -235 0 -234 94 0 95 0 3 169 c3 154 5 172 24
198 44 59 49 44 52 -170 l2 -197 95 0 95 0 0 194 c0 115 -4 206 -11 225 -22
64 -127 82 -213 36 l-46 -24 0 24 c0 27 -9 28 -142 18z"/>
<path d="M4515 803 c-28 -8 -81 -45 -105 -76 -47 -59 -64 -181 -39 -272 23
-82 111 -135 226 -135 103 0 170 39 192 111 15 48 9 57 -42 66 l-37 6 0 -42
c0 -31 -6 -48 -25 -66 -56 -57 -116 -10 -131 103 l-7 52 128 0 127 0 -7 58
c-13 105 -57 173 -124 192 -37 10 -121 12 -156 3z m110 -99 c3 -19 7 -50 10
-69 l6 -35 -47 0 -47 0 7 57 c12 102 58 132 71 47z"/>
<path d="M4965 795 c-22 -8 -55 -30 -72 -49 -28 -30 -33 -43 -33 -86 0 -65 34
-104 139 -159 89 -46 104 -60 99 -93 -8 -58 -111 -38 -143 28 -9 19 -13 38
-10 43 10 17 -10 20 -58 9 -47 -10 -48 -10 -42 -41 16 -81 79 -119 200 -124
147 -6 225 44 225 144 0 81 -41 127 -155 178 -63 27 -105 60 -105 81 0 21 30
44 58 44 40 0 70 -26 78 -65 5 -30 10 -35 33 -35 14 0 36 3 49 6 19 6 22 11
17 33 -9 34 -42 70 -82 87 -41 18 -147 17 -198 -1z"/>
<path d="M5450 797 c-47 -15 -103 -74 -118 -123 -6 -23 -12 -75 -12 -116 0
-100 34 -171 100 -208 39 -22 57 -25 140 -25 107 1 138 12 188 69 77 88 62
312 -26 375 -56 39 -192 53 -272 28z m134 -59 c47 -114 14 -412 -40 -367 -43
36 -45 334 -2 386 17 21 28 15 42 -19z"/>
<path d="M5912 803 l-43 -4 3 -209 3 -210 27 -27 c40 -40 125 -44 191 -9 45
24 47 25 47 6 0 -19 7 -20 95 -20 l95 0 0 241 0 242 -82 -6 c-46 -4 -89 -7
-95 -7 -10 0 -13 -39 -13 -161 0 -126 -3 -168 -16 -194 -16 -34 -38 -50 -55
-39 -5 3 -9 95 -9 205 l0 199 -52 -2 c-29 -1 -72 -3 -96 -5z"/>
<path d="M6483 803 l-53 -4 0 -235 0 -234 95 0 95 0 0 164 c0 167 10 226 37
226 16 0 15 -29 -2 -72 -6 -16 0 -18 58 -18 36 0 69 5 72 10 4 6 9 34 12 63 4
43 1 57 -17 80 -28 35 -93 38 -134 6 l-26 -20 0 20 c0 23 -4 23 -137 14z"/>
<path d="M6980 797 c-49 -16 -123 -93 -138 -143 -15 -51 -15 -146 -1 -199 25
-91 125 -143 255 -132 106 8 163 57 172 145 4 48 4 49 -28 61 -55 19 -61 16
-54 -26 12 -83 -40 -154 -102 -139 -38 10 -57 60 -62 168 -7 143 25 238 79
238 30 0 59 -48 59 -96 0 -49 4 -51 55 -27 29 14 35 22 35 49 0 39 -33 82 -76
100 -39 16 -144 17 -194 1z"/>
<path d="M7465 803 c-29 -8 -81 -46 -105 -76 -47 -59 -64 -181 -39 -272 23
-82 111 -135 226 -135 103 0 170 39 192 111 15 48 9 57 -42 66 l-37 6 0 -42
c0 -31 -6 -48 -25 -66 -56 -57 -116 -10 -131 103 l-7 52 128 0 127 0 -7 58
c-9 78 -36 134 -79 167 -31 24 -48 29 -109 31 -40 2 -81 0 -92 -3z m110 -99
c3 -19 7 -50 10 -69 l6 -35 -47 0 -47 0 7 57 c12 102 58 132 71 47z"/>
<path d="M7915 795 c-22 -8 -55 -30 -72 -49 -28 -30 -33 -43 -33 -86 0 -65 34
-104 139 -159 89 -46 104 -60 99 -93 -8 -59 -117 -37 -145 29 -7 19 -11 38 -8
42 8 15 -18 18 -63 9 -42 -9 -43 -10 -37 -41 9 -46 36 -79 81 -102 53 -27 222
-28 272 -2 44 24 72 72 72 125 0 80 -41 127 -155 177 -63 27 -105 60 -105 81
0 21 30 44 58 44 40 0 70 -26 78 -65 5 -30 10 -35 33 -35 37 0 71 11 71 22 0
32 -36 79 -74 98 -50 24 -150 27 -211 5z"/>
</g>
</svg>
