<svg xmlns="http://www.w3.org/2000/svg" xmlns:xlink="http://www.w3.org/1999/xlink" viewBox="0 0 1000 1000"><defs><style>.cls-1{isolation:isolate;}.cls-2{fill:url(#linear-gradient);}.cls-3{fill:url(#linear-gradient-2);}.cls-4{fill:#1d71b8;}.cls-5{fill:url(#linear-gradient-3);}.cls-6{fill:url(#linear-gradient-4);}.cls-7{fill:url(#linear-gradient-5);}.cls-8{fill:url(#linear-gradient-6);}.cls-9{mix-blend-mode:multiply;fill:url(#linear-gradient-7);}</style><linearGradient id="linear-gradient" x1="219.14" y1="420.45" x2="452.05" y2="420.45" gradientUnits="userSpaceOnUse"><stop offset="0" stop-color="#233f92"/><stop offset="0.01" stop-color="#234093"/><stop offset="0.33" stop-color="#1470b9"/><stop offset="0.62" stop-color="#0994d4"/><stop offset="0.85" stop-color="#02a9e5"/><stop offset="1" stop-color="#00b1eb"/></linearGradient><linearGradient id="linear-gradient-2" x1="409.65" y1="437.78" x2="458.9" y2="354.82" gradientUnits="userSpaceOnUse"><stop offset="0.01" stop-color="#1d71b8"/><stop offset="1" stop-color="#36a9e1"/></linearGradient><linearGradient id="linear-gradient-3" x1="778.95" y1="547.47" x2="574.74" y2="343.25" xlink:href="#linear-gradient"/><linearGradient id="linear-gradient-4" x1="689.82" y1="446.96" x2="605.06" y2="328.75" gradientUnits="userSpaceOnUse"><stop offset="0" stop-color="#00b1eb"/><stop offset="1" stop-color="#9f348b"/></linearGradient><linearGradient id="linear-gradient-5" x1="550.72" y1="394.07" x2="753.14" y2="394.07" xlink:href="#linear-gradient-2"/><linearGradient id="linear-gradient-6" x1="796.31" y1="720.1" x2="854.89" y2="778.68" gradientTransform="translate(-24.8 1319.37) rotate(-95.57)" xlink:href="#linear-gradient"/><linearGradient id="linear-gradient-7" x1="603.37" y1="431.07" x2="695.12" y2="431.07" xlink:href="#linear-gradient"/></defs><g class="cls-1"><g id="Layer_1" data-name="Layer 1"><path class="cls-2" d="M378.05,441.05h0c-31.14-50.16-78.52-126.16-78.52-126.16h0a42.91,42.91,0,0,0-74.93,41.85L329.36,526h0c16.61,29.75,58.93,28.9,75.07,0h0l47.6-76.91C408,488.9,378.05,441.05,378.05,441.05Z"/><path class="cls-3" d="M509.22,356.73a42.91,42.91,0,1,0-74.93-41.85h0s-37.23,59.72-67.38,108.22l11.14,17.94s30,47.85,74,8Z"/><path class="cls-4" d="M137.54,679.3l-31.78-75.15H133l25.88,63.45H142.7l26.62-63.45h24.91L162.45,679.3Z"/><path class="cls-4" d="M210.23,615.85q-6.66,0-10.63-3.54a11.75,11.75,0,0,1,0-17.61q4-3.54,10.63-3.54t10.63,3.33a10.71,10.71,0,0,1,4,8.59,11.87,11.87,0,0,1-4,9.18Q216.89,615.85,210.23,615.85ZM198.09,679.3V620.58h24.27V679.3Z"/><path class="cls-4" d="M233.09,679.3V620.58h23.09v17.71l-3.76-5A19.83,19.83,0,0,1,261,622.94a27.7,27.7,0,0,1,14.17-3.44V641c-1.07-.15-2-.25-2.84-.33s-1.67-.1-2.53-.1a13.74,13.74,0,0,0-9,2.84q-3.5,2.85-3.49,9.82V679.3Z"/><path class="cls-4" d="M278.29,641.51V623.8h44.35v17.71ZM312,680.38q-12.13,0-18.9-5.85t-6.76-18V607.37h24.26v49a5.79,5.79,0,0,0,1.45,4.19,4.8,4.8,0,0,0,3.6,1.5,9.5,9.5,0,0,0,5.47-1.61l5.8,16.85a21.28,21.28,0,0,1-6.71,2.37A43.6,43.6,0,0,1,312,680.38Z"/><path class="cls-4" d="M357.53,680.38a27.56,27.56,0,0,1-12.62-2.85,20.17,20.17,0,0,1-8.85-8.91q-3.22-6.06-3.23-15.62V620.58H357.1v28.23q0,6.23,2,8.7a6.84,6.84,0,0,0,5.58,2.47,7.75,7.75,0,0,0,4-1.13,8,8,0,0,0,3.06-3.76,17.19,17.19,0,0,0,1.18-6.92V620.58h24.26V679.3H374.17v-17l4.62,4.62a21.38,21.38,0,0,1-8.86,10.14A24.55,24.55,0,0,1,357.53,680.38Z"/><path class="cls-4" d="M426.89,680.38a26.35,26.35,0,0,1-12-2.47,17.12,17.12,0,0,1-9.77-15.78,16,16,0,0,1,2.9-9.67,17.62,17.62,0,0,1,8.86-6,47.23,47.23,0,0,1,15.08-2h12.24v11.7H435.8c-2.58,0-4.46.42-5.64,1.24a4.21,4.21,0,0,0-1.77,3.7,4.26,4.26,0,0,0,1.56,3.38,6.24,6.24,0,0,0,4.24,1.35,8.27,8.27,0,0,0,4.56-1.35,7.66,7.66,0,0,0,3.06-4.24l3.11,7.2q-1.4,6.54-5.9,9.77T426.89,680.38Zm16.64-1.08V668.89l-1.72-2.79V646.34a8.18,8.18,0,0,0-2.63-6.55c-1.76-1.5-4.6-2.25-8.54-2.25a27.77,27.77,0,0,0-8.05,1.23,22.81,22.81,0,0,0-7,3.39l-7.73-16a41.31,41.31,0,0,1,12.35-4.94,60.65,60.65,0,0,1,14.06-1.72q15.15,0,23.46,6.77t8.32,21.47V679.3Z"/><path class="cls-4" d="M476.59,679.3V599.64h24.27V679.3Z"/><path class="cls-4" d="M584.06,681a48.21,48.21,0,0,1-17-2.9,40,40,0,0,1-13.48-8.21,37.85,37.85,0,0,1-8.86-12.51,38.61,38.61,0,0,1,8.86-43.86,40,40,0,0,1,13.48-8.21,50.9,50.9,0,0,1,33.87,0,40,40,0,0,1,13.42,8.21,37.65,37.65,0,0,1,12,28.19,38.46,38.46,0,0,1-3.17,15.67,37.71,37.71,0,0,1-8.86,12.51,40,40,0,0,1-13.42,8.21A47.46,47.46,0,0,1,584.06,681Zm-.1-20.5a16.81,16.81,0,0,0,6.6-1.29,15.92,15.92,0,0,0,5.37-3.71,16.67,16.67,0,0,0,3.59-5.9,24.77,24.77,0,0,0,0-15.78,16.71,16.71,0,0,0-3.59-5.91,15.9,15.9,0,0,0-5.37-3.7,17.55,17.55,0,0,0-13.21,0,15.76,15.76,0,0,0-5.36,3.7,16.88,16.88,0,0,0-3.6,5.91,24.77,24.77,0,0,0,0,15.78,16.83,16.83,0,0,0,3.6,5.9,15.79,15.79,0,0,0,5.36,3.71A16.83,16.83,0,0,0,584,660.52Z"/><path class="cls-4" d="M629.48,651.51V633.8h44.34v17.71Zm8,27.79V623.48q0-11.38,6.82-18.15t19.38-6.76a44.81,44.81,0,0,1,7.78.69,21,21,0,0,1,6.6,2.21l-5.79,16.85a20.41,20.41,0,0,0-2.58-1,9.7,9.7,0,0,0-2.9-.43,5.65,5.65,0,0,0-4.19,1.61q-1.6,1.61-1.61,5.15v2.79l.75,10V679.3Z"/><path class="cls-4" d="M673.82,651.51V633.8h45.74v17.71Zm9.45,27.79V623.48q0-11.38,6.81-18.15t19.38-6.76a44.92,44.92,0,0,1,7.79.69,21,21,0,0,1,6.6,2.21l-5.8,16.85a20.25,20.25,0,0,0-2.57-1,9.75,9.75,0,0,0-2.9-.43,5.64,5.64,0,0,0-4.19,1.61q-1.6,1.61-1.61,5.15v2.79l.75,10V679.3Zm57.87-63.45q-6.66,0-10.63-3.54a11.73,11.73,0,0,1,0-17.61q4-3.54,10.63-3.54c4.43,0,8,1.11,10.62,3.33a10.69,10.69,0,0,1,4,8.59,11.84,11.84,0,0,1-4,9.18C749.12,614.65,745.57,615.85,741.14,615.85ZM729,679.3V620.58h24.27V679.3Z"/><path class="cls-4" d="M795.57,680.38a40,40,0,0,1-17.93-3.87,30,30,0,0,1-12.29-10.79,30.25,30.25,0,0,1,0-31.62,30.12,30.12,0,0,1,12.29-10.73,40,40,0,0,1,17.93-3.87q10.74,0,18.36,4.62a24,24,0,0,1,10.52,12.78l-18.79,9.23a13.9,13.9,0,0,0-4.45-5.91,9.93,9.93,0,0,0-5.75-1.82,10.06,10.06,0,0,0-5,1.29,9.14,9.14,0,0,0-3.65,3.81,13.45,13.45,0,0,0-1.34,6.39,13.81,13.81,0,0,0,1.34,6.44,9,9,0,0,0,3.65,3.86,10.06,10.06,0,0,0,5,1.29,9.86,9.86,0,0,0,5.75-1.82,13.9,13.9,0,0,0,4.45-5.91L824.45,663a23.94,23.94,0,0,1-10.52,12.77Q806.31,680.38,795.57,680.38Z"/><path class="cls-4" d="M861.92,680.38a41.71,41.71,0,0,1-18.73-4,30.31,30.31,0,0,1-12.41-10.9,28.56,28.56,0,0,1-4.4-15.62,28.92,28.92,0,0,1,4.35-15.79,29.79,29.79,0,0,1,11.92-10.73,36.83,36.83,0,0,1,17-3.87,37.5,37.5,0,0,1,16.05,3.44,28.15,28.15,0,0,1,11.81,10.2q4.46,6.76,4.45,16.75c0,.86,0,1.81-.1,2.84s-.15,2-.22,2.85h-45.2V643.87h32.32L869.65,647a12.77,12.77,0,0,0-1.23-5.85,9.38,9.38,0,0,0-3.39-3.76,9.48,9.48,0,0,0-5.15-1.34,9.78,9.78,0,0,0-5.21,1.34,8.88,8.88,0,0,0-3.38,3.76,13.18,13.18,0,0,0-1.18,5.85v3.65a13,13,0,0,0,1.5,6.44,9.59,9.59,0,0,0,4.3,4,15.55,15.55,0,0,0,6.76,1.34,18,18,0,0,0,6.71-1.07,25.75,25.75,0,0,0,5.53-3.23l12.67,12.78A27.8,27.8,0,0,1,877,678,42,42,0,0,1,861.92,680.38Z"/><path class="cls-5" d="M651.93,292.89A127.56,127.56,0,1,0,779.49,420.45,127.57,127.57,0,0,0,651.93,292.89Zm0,202.44a74.89,74.89,0,1,1,74.89-74.88A74.89,74.89,0,0,1,651.93,495.33Z"/><path class="cls-6" d="M651.93,292.91a101.2,101.2,0,0,0-3.86,202.33,74.89,74.89,0,1,1,7.72,0,101.2,101.2,0,0,0-3.86-202.33Z"/><path class="cls-7" d="M753.14,394.12a101.21,101.21,0,0,1-97.35,101.12,74.88,74.88,0,1,0-7.72,0A101.2,101.2,0,1,1,753.14,394.12Z"/><circle class="cls-8" cx="649.24" cy="414.8" r="45.88" transform="translate(173.39 1020.71) rotate(-84.43)"/><path class="cls-9" d="M649.24,434a45.88,45.88,0,0,1-43.9-32.55,45.88,45.88,0,1,0,87.8,0A45.88,45.88,0,0,1,649.24,434Z"/></g></g></svg>