<svg width="16" height="16" viewBox="0 0 16 16" fill="none" xmlns="http://www.w3.org/2000/svg">
<path d="M4.85679 8.53494C4.04751 7.23136 2.81618 5.25624 2.81618 5.25624C2.67196 4.99801 2.43105 4.80765 2.14647 4.72704C1.86189 4.64642 1.55695 4.68216 1.29872 4.82639C1.04049 4.97062 0.850128 5.21152 0.769516 5.4961C0.688904 5.78068 0.724642 6.08562 0.868869 6.34385L3.59142 10.7427C4.02308 11.5158 5.12291 11.4937 5.54237 10.7427L6.77942 8.74388C5.63515 9.77848 4.85679 8.53494 4.85679 8.53494Z" fill="url(#paint0_linear_45_24)"/>
<path d="M8.2658 6.34361C8.33721 6.21574 8.38274 6.07507 8.39979 5.92961C8.41683 5.78415 8.40506 5.63676 8.36515 5.49585C8.32523 5.35494 8.25796 5.22327 8.16716 5.10836C8.07635 4.99345 7.96381 4.89756 7.83595 4.82614C7.70809 4.75473 7.56741 4.7092 7.42195 4.69215C7.27649 4.6751 7.1291 4.68687 6.98819 4.72679C6.84728 4.7667 6.71561 4.83398 6.6007 4.92478C6.4858 5.01558 6.3899 5.12813 6.31848 5.25599V5.25599C6.31848 5.25599 5.35093 6.80802 4.56738 8.06846L4.85689 8.53469C4.85689 8.53469 5.63655 9.77824 6.78004 8.7426L8.2658 6.34361Z" fill="url(#paint1_linear_45_24)"/>
<path d="M11.9745 4.68451C11.3188 4.68451 10.6779 4.87893 10.1327 5.2432C9.58758 5.60747 9.16268 6.12521 8.91177 6.73097C8.66086 7.33672 8.59521 8.00327 8.72312 8.64633C8.85104 9.2894 9.16677 9.88009 9.63039 10.3437C10.094 10.8073 10.6847 11.1231 11.3278 11.251C11.9708 11.3789 12.6374 11.3132 13.2431 11.0623C13.8489 10.8114 14.3666 10.3865 14.7309 9.84136C15.0952 9.29619 15.2896 8.65526 15.2896 7.99959C15.2895 7.1204 14.9402 6.27723 14.3186 5.65555C13.6969 5.03387 12.8537 4.68458 11.9745 4.68451V4.68451ZM11.9745 9.94561C11.5896 9.94561 11.2133 9.83145 10.8932 9.61758C10.5731 9.40371 10.3237 9.09973 10.1764 8.74408C10.0291 8.38843 9.99053 7.99709 10.0657 7.61954C10.1408 7.24199 10.3262 6.8952 10.5984 6.62302C10.8706 6.35084 11.2174 6.16549 11.595 6.09042C11.9725 6.01536 12.3639 6.05394 12.7195 6.20129C13.0751 6.34863 13.3791 6.59813 13.5929 6.91823C13.8067 7.23833 13.9208 7.61465 13.9208 7.99959C13.9207 8.51573 13.7156 9.01071 13.3506 9.37565C12.9857 9.74059 12.4906 9.94561 11.9745 9.94561V9.94561Z" fill="url(#paint2_linear_45_24)"/>
<path d="M11.9746 4.685C11.2853 4.68433 10.6233 4.95429 10.1311 5.43677C9.63884 5.91926 9.35567 6.57571 9.34252 7.26486C9.32937 7.95401 9.5873 8.62079 10.0608 9.1217C10.5343 9.62261 11.1855 9.91761 11.8743 9.94324C11.3675 9.91708 10.8909 9.69399 10.5462 9.32153C10.2015 8.94907 10.0159 8.4567 10.029 7.94938C10.0421 7.44205 10.2528 6.9599 10.6162 6.6057C10.9797 6.2515 11.4671 6.05328 11.9746 6.05328C12.4821 6.05328 12.9695 6.2515 13.333 6.6057C13.6964 6.9599 13.9072 7.44205 13.9202 7.94938C13.9333 8.4567 13.7477 8.94907 13.403 9.32153C13.0583 9.69399 12.5818 9.91708 12.0749 9.94324C12.7637 9.91761 13.4149 9.62261 13.8884 9.1217C14.3619 8.62079 14.6199 7.95401 14.6067 7.26486C14.5936 6.57571 14.3104 5.91926 13.8181 5.43677C13.3259 4.95429 12.6639 4.68433 11.9746 4.685V4.685Z" fill="url(#paint3_linear_45_24)"/>
<path d="M14.6048 7.31531C14.6047 7.99546 14.3411 8.64913 13.8694 9.13912C13.3977 9.62911 12.7545 9.91732 12.0748 9.94326C12.5816 9.9171 13.0581 9.69404 13.4027 9.32163C13.7474 8.94922 13.9329 8.45691 13.9199 7.94965C13.9068 7.4424 13.6961 6.96031 13.3327 6.60616C12.9693 6.25201 12.4819 6.05382 11.9745 6.05382C11.4671 6.05382 10.9797 6.25201 10.6163 6.60616C10.2529 6.96031 10.0422 7.4424 10.0291 7.94965C10.016 8.45691 10.2016 8.94922 10.5463 9.32163C10.8909 9.69404 11.3674 9.9171 11.8742 9.94326C11.3587 9.92353 10.8603 9.75262 10.4412 9.45181C10.0221 9.151 9.70071 8.73356 9.51704 8.25147C9.33338 7.76938 9.29555 7.24391 9.40828 6.74049C9.521 6.23706 9.77929 5.7779 10.151 5.42016C10.5227 5.06242 10.9914 4.8219 11.4988 4.72854C12.0062 4.63519 12.5298 4.69311 13.0045 4.8951C13.4792 5.09709 13.884 5.43424 14.1686 5.86457C14.4531 6.2949 14.6048 6.79941 14.6048 7.31531V7.31531Z" fill="url(#paint4_linear_45_24)"/>
<path d="M13.0915 7.96839C13.1554 7.31298 12.6759 6.72985 12.0205 6.66594C11.3651 6.60202 10.7819 7.08152 10.718 7.73693C10.6541 8.39233 11.1336 8.97546 11.789 9.03938C12.4444 9.10329 13.0275 8.6238 13.0915 7.96839Z" fill="url(#paint5_linear_45_24)"/>
<path style="mix-blend-mode:multiply" d="M11.9045 8.35172C11.6488 8.35172 11.3998 8.26948 11.1944 8.11716C10.9889 7.96484 10.8379 7.75051 10.7636 7.5058C10.7095 7.68398 10.6979 7.87236 10.7297 8.05585C10.7615 8.23934 10.8358 8.41283 10.9467 8.56242C11.0576 8.71201 11.202 8.83355 11.3683 8.91729C11.5347 9.00103 11.7183 9.04465 11.9045 9.04465C12.0907 9.04465 12.2744 9.00103 12.4407 8.91729C12.607 8.83355 12.7514 8.71201 12.8623 8.56242C12.9732 8.41283 13.0476 8.23934 13.0794 8.05585C13.1111 7.87236 13.0995 7.68398 13.0454 7.5058C12.9711 7.75051 12.8201 7.96484 12.6146 8.11716C12.4092 8.26948 12.1602 8.35172 11.9045 8.35172V8.35172Z" fill="url(#paint6_linear_45_24)"/>
<defs>
<linearGradient id="paint0_linear_45_24" x1="0.726972" y1="7.99958" x2="6.77994" y2="7.99958" gradientUnits="userSpaceOnUse">
<stop stop-color="#233F92"/>
<stop offset="0.01" stop-color="#234093"/>
<stop offset="0.33" stop-color="#1470B9"/>
<stop offset="0.62" stop-color="#0994D4"/>
<stop offset="0.85" stop-color="#02A9E5"/>
<stop offset="1" stop-color="#00B1EB"/>
</linearGradient>
<linearGradient id="paint1_linear_45_24" x1="5.67813" y1="8.44997" x2="6.95806" y2="6.29397" gradientUnits="userSpaceOnUse">
<stop offset="0.01" stop-color="#1D71B8"/>
<stop offset="1" stop-color="#36A9E1"/>
</linearGradient>
<linearGradient id="paint2_linear_45_24" x1="15.2756" y1="11.3006" x2="9.96846" y2="5.99329" gradientUnits="userSpaceOnUse">
<stop stop-color="#233F92"/>
<stop offset="0.01" stop-color="#234093"/>
<stop offset="0.33" stop-color="#1470B9"/>
<stop offset="0.62" stop-color="#0994D4"/>
<stop offset="0.85" stop-color="#02A9E5"/>
<stop offset="1" stop-color="#00B1EB"/>
</linearGradient>
<linearGradient id="paint3_linear_45_24" x1="12.9593" y1="8.68852" x2="10.7565" y2="5.61642" gradientUnits="userSpaceOnUse">
<stop stop-color="#00B1EB"/>
<stop offset="1" stop-color="#9F348B"/>
</linearGradient>
<linearGradient id="paint4_linear_45_24" x1="9.34421" y1="7.31401" x2="14.6048" y2="7.31401" gradientUnits="userSpaceOnUse">
<stop offset="0.01" stop-color="#1D71B8"/>
<stop offset="1" stop-color="#36A9E1"/>
</linearGradient>
<linearGradient id="paint5_linear_45_24" x1="12.907" y1="8.85468" x2="11.3846" y2="7.33228" gradientUnits="userSpaceOnUse">
<stop stop-color="#233F92"/>
<stop offset="0.01" stop-color="#234093"/>
<stop offset="0.33" stop-color="#1470B9"/>
<stop offset="0.62" stop-color="#0994D4"/>
<stop offset="0.85" stop-color="#02A9E5"/>
<stop offset="1" stop-color="#00B1EB"/>
</linearGradient>
<linearGradient id="paint6_linear_45_24" x1="10.7124" y1="8.27558" x2="13.0969" y2="8.27558" gradientUnits="userSpaceOnUse">
<stop stop-color="#233F92"/>
<stop offset="0.01" stop-color="#234093"/>
<stop offset="0.33" stop-color="#1470B9"/>
<stop offset="0.62" stop-color="#0994D4"/>
<stop offset="0.85" stop-color="#02A9E5"/>
<stop offset="1" stop-color="#00B1EB"/>
</linearGradient>
</defs>
</svg>
